<svg width="176" height="164" viewBox="0 0 176 164" fill="none" xmlns="http://www.w3.org/2000/svg">
<path fill-rule="evenodd" clip-rule="evenodd" d="M93.6648 17.2983C93.163 15.6108 92.4905 13.8544 91.6495 12.0903C87.7344 3.8786 81.6482 -1.38978 78.0556 0.323069C74.6289 1.95677 74.7084 9.35134 78.1201 17.1564C77.2888 16.6704 76.3928 16.2179 75.4436 15.8121C69.3831 13.221 63.4468 13.5141 62.1844 16.4667C60.9221 19.4192 64.8118 23.9132 70.8723 26.5043C71.0305 26.5719 71.1886 26.6375 71.3465 26.7012C55.152 31.0726 41.508 41.6569 33.129 55.7395C31.3675 55.1743 29.4896 54.8691 27.5404 54.8691C17.4481 54.8691 9.26668 63.0505 9.26668 73.1428C9.26668 76.6655 10.2635 79.9555 11.9904 82.7459C4.99347 85.3079 0 92.0262 0 99.9107C0 105.389 2.41085 110.305 6.22952 113.654C3.93462 116.708 2.5747 120.505 2.5747 124.62C2.5747 125.352 2.61776 126.074 2.70149 126.784C2.61733 127.43 2.5747 128.081 2.5747 128.736C2.5747 148.21 40.2553 163.997 86.7367 163.997C127.653 163.997 161.75 151.764 169.328 135.551C171.607 132.503 172.957 128.719 172.957 124.62C172.957 120.505 171.597 116.708 169.302 113.654C173.121 110.305 175.531 105.389 175.531 99.9107C175.531 92.1835 170.735 85.5765 163.957 82.9042C165.745 80.0803 166.78 76.7324 166.78 73.1428C166.78 63.0505 158.599 54.8691 148.507 54.8691C146.557 54.8691 144.678 55.1745 142.916 55.74C134.076 40.882 119.375 29.9179 102.001 26.0363C102.032 25.9732 102.062 25.9099 102.092 25.8464C104.907 19.8868 104.836 13.9437 101.933 12.5721C99.6685 11.5025 96.3511 13.5285 93.6648 17.2983Z" fill="#485AFD"/>
<rect x="48.8991" y="58.6767" width="39.6359" height="46.3277" rx="19.818" fill="white"/>
<rect x="64.2963" y="73.5607" width="21.7081" height="23.7671" rx="10.8541" fill="white" stroke="black" stroke-width="3"/>
<rect x="64.2963" y="73.5607" width="21.7081" height="23.7671" rx="10.8541" fill="black" stroke="black" stroke-width="3"/>
<rect x="87.5056" y="58.6767" width="39.6359" height="46.3277" rx="19.818" fill="white"/>
<rect x="89.5189" y="73.5607" width="21.7081" height="23.7671" rx="10.8541" fill="black" stroke="black" stroke-width="3"/>
<rect x="76.1803" y="91.6206" width="24.7081" height="26.7671" rx="12.3541" fill="#FFCC00"/>
</svg>
