<svg width="13" height="16" viewBox="0 0 13 16" fill="none" xmlns="http://www.w3.org/2000/svg">
<path d="M11.354 7.9972C11.354 8.5612 11.26 9.1042 11.088 9.6102L10.274 8.7962C10.3274 8.53323 10.3542 8.26555 10.354 7.9972V6.9972C10.354 6.8646 10.4067 6.73742 10.5004 6.64365C10.5942 6.54988 10.7214 6.4972 10.854 6.4972C10.9866 6.4972 11.1138 6.54988 11.2076 6.64365C11.3013 6.73742 11.354 6.8646 11.354 6.9972V7.9972ZM6.354 11.9972C7.172 11.9972 7.932 11.7522 8.566 11.3302L9.284 12.0492C8.56954 12.5657 7.7312 12.8842 6.854 12.9722V14.9972H9.854C9.9866 14.9972 10.1138 15.0499 10.2076 15.1437C10.3013 15.2374 10.354 15.3646 10.354 15.4972C10.354 15.6298 10.3013 15.757 10.2076 15.8508C10.1138 15.9445 9.9866 15.9972 9.854 15.9972H2.854C2.72139 15.9972 2.59421 15.9445 2.50044 15.8508C2.40667 15.757 2.354 15.6298 2.354 15.4972C2.354 15.3646 2.40667 15.2374 2.50044 15.1437C2.59421 15.0499 2.72139 14.9972 2.854 14.9972H5.854V12.9722C4.62068 12.8483 3.47737 12.2706 2.64588 11.3513C1.81438 10.4321 1.35398 9.23673 1.354 7.9972V6.9972C1.354 6.8646 1.40667 6.73742 1.50044 6.64365C1.59421 6.54988 1.72139 6.4972 1.854 6.4972C1.9866 6.4972 2.11378 6.54988 2.20755 6.64365C2.30132 6.73742 2.354 6.8646 2.354 6.9972V7.9972C2.354 9.05807 2.77542 10.0755 3.52557 10.8256C4.27571 11.5758 5.29313 11.9972 6.354 11.9972ZM9.354 2.9972V7.8762L3.512 2.0342C3.74094 1.36145 4.2012 0.791762 4.81083 0.426571C5.42046 0.0613805 6.13991 -0.0756175 6.8411 0.0399662C7.54228 0.15555 8.1797 0.516214 8.63987 1.05775C9.10004 1.59929 9.3531 2.28656 9.354 2.9972Z" fill="black"/>
<path d="M7.84 10.6042L3.354 6.11719V7.99719C3.35384 8.52251 3.49163 9.03865 3.75358 9.494C4.01552 9.94935 4.39244 10.3279 4.84663 10.5919C5.30082 10.8558 5.81636 10.9959 6.34167 10.9981C6.86698 11.0002 7.38366 10.8644 7.84 10.6042ZM0 1.35119L12 13.3512L12.708 12.6432L0.708 0.643188L0 1.35119Z" fill="black"/>
</svg>
