<svg width="36" height="36" viewBox="0 0 36 36" fill="none" xmlns="http://www.w3.org/2000/svg">
<circle cx="18" cy="18" r="18" fill="#4457FC"/>
<rect width="20.5714" height="20.5714" transform="translate(8.22855 7.19995)" fill="#4457FC"/>
<path d="M10.2857 10.2857C10.2857 9.71759 10.7462 9.25708 11.3143 9.25708H13.5286C14.0315 9.25708 14.4606 9.62059 14.5432 10.1166L15.3037 14.6792C15.3779 15.1246 15.1529 15.5663 14.7491 15.7682L13.1567 16.5644C14.3049 19.4176 16.5823 21.695 19.4355 22.8432L20.2317 21.2508C20.4336 20.847 20.8753 20.622 21.3207 20.6963L25.8834 21.4567C26.3793 21.5394 26.7428 21.9685 26.7428 22.4713V24.6857C26.7428 25.2537 26.2823 25.7142 25.7143 25.7142H23.6571C16.2723 25.7142 10.2857 19.7276 10.2857 12.3428V10.2857Z" fill="white"/>
</svg>
