<svg width="21" height="21" viewBox="0 0 21 21" fill="none" xmlns="http://www.w3.org/2000/svg">
<path d="M15.8025 16.7877L16.4775 16.1172C19.6005 16.2192 19.6485 16.1097 19.7858 15.7887L20.6437 13.6999L20.7075 13.5019L20.6378 13.3287C20.601 13.2372 20.4878 12.9642 18.5378 11.1049V10.1269C20.7878 7.95943 20.7398 7.84843 20.6115 7.53118L19.7573 5.42068C19.629 5.10418 19.5802 4.98043 16.4797 5.06518L15.8047 4.36768C15.8753 3.34028 15.8399 2.30833 15.699 1.28818L15.612 1.09093L13.3815 0.115934C13.053 -0.0340655 12.9375 -0.0880655 10.8315 2.20543L9.885 2.19118C7.71675 -0.123315 7.614 -0.0813156 7.28925 0.0499344L5.2155 0.888434C4.89075 1.01968 4.776 1.06618 4.902 4.21618L4.23225 4.88368C1.11075 4.78168 1.06275 4.89268 0.927 5.21218L0.0675001 7.30168L0 7.50193L0.0705001 7.67594C0.10725 7.76594 0.216 8.03593 2.1705 9.89743V10.8724C-0.0794998 13.0399 -0.03075 13.1509 0.09825 13.4689L0.95175 15.5817C1.08225 15.9049 1.12875 16.0197 4.2285 15.9387L4.9035 16.6399C4.83331 17.6658 4.86774 18.6961 5.00625 19.7149L5.09325 19.9137L7.338 20.8947C7.66425 21.0312 7.7775 21.0799 9.8775 18.7947L10.824 18.8067C12.9953 21.1242 13.1063 21.0792 13.4235 20.9509L15.4927 20.1147C15.8197 19.9849 15.9337 19.9392 15.8025 16.7877ZM6.909 11.8947C6.64729 11.2107 6.59341 10.4647 6.75411 9.75024C6.91482 9.03577 7.28295 8.38467 7.81232 7.87864C8.34169 7.37262 9.00871 7.0342 9.7297 6.90586C10.4507 6.77752 11.1935 6.86497 11.865 7.15724C12.5365 7.44951 13.1067 7.93358 13.504 8.5487C13.9014 9.16383 14.1083 9.88262 14.0987 10.6149C14.0891 11.3471 13.8634 12.0602 13.45 12.6647C13.0366 13.2692 12.4539 13.7381 11.775 14.0127C10.8487 14.3749 9.81662 14.3554 8.90465 13.9585C7.99269 13.5615 7.27512 12.8195 6.909 11.8947Z" fill="#40535B"/>
</svg>
